<?xml version="1.0" encoding="UTF-8"?><svg id="Layer_1" xmlns="http://www.w3.org/2000/svg" viewBox="0 0 38.25 38"><defs><style>.cls-1{stroke-width:0px;}.cls-2{fill:#fff;}.cls-2,.cls-3,.cls-4{stroke:#fff;stroke-miterlimit:10;}.cls-2,.cls-4{stroke-width:2px;}.cls-3{fill:none;stroke-width:3px;}</style></defs><path class="cls-1" d="m6.28,38c-.76,0-1.43-.32-2-.95s-.86-1.37-.86-2.22V4.75h-1.96V1.58h8.97V0h12.6v1.58h8.97v3.17h-1.96v30.08c0,.84-.29,1.58-.86,2.22s-1.24.95-2,.95H6.28Z"/><path class="cls-4" d="m26.45,11.1c2.99,0,5.53,1.05,7.64,3.14,2.11,2.1,3.16,4.63,3.16,7.6s-1.05,5.53-3.16,7.64c-2.11,2.11-4.65,3.16-7.64,3.16s-5.53-1.05-7.61-3.16c-2.09-2.11-3.13-4.65-3.13-7.64s1.05-5.53,3.14-7.61c2.1-2.09,4.63-3.13,7.6-3.13Z"/><path class="cls-3" d="m21.1,16.13l11.13,11.13"/><path class="cls-3" d="m32.23,16.13l-11.13,11.13"/><path class="cls-2" d="m0,5.77h32.33"/></svg>