<svg id="Layer_1" xmlns="http://www.w3.org/2000/svg" viewBox="0 0 34.61 46.57"><defs><style>.cls-1{stroke-width:0px;}</style></defs><path class="cls-1" d="m10.65,37h-3.88c-.64,0-1.16-.52-1.16-1.16v-8.1h-3v9.26c0,.8.3,1.5.9,2.1.6.6,1.3.9,2.1.9h8.04l-3-3Z"/><path class="cls-1" d="m23.66,0H5.61c-.8,0-1.5.3-2.1.9-.6.6-.9,1.3-.9,2.1v7.91h3v-6.75c0-.64.52-1.16,1.16-1.16h14.23c.64,0,1.16.52,1.16,1.16v6.98c0,.64.52,1.16,1.16,1.16h7.13c.64,0,1.16.52,1.16,1.16v22.38c0,.64-.52,1.16-1.16,1.16h-3.66l-3,3h7.82c.8,0,1.5-.3,2.1-.9s.9-1.3.9-2.1V10.95L23.66,0Z"/><polygon class="cls-1" points="21.91 34.83 21.91 28.6 15.69 28.6 15.69 34.83 11.55 34.83 18.8 42.08 26.06 34.83 21.91 34.83"/><path class="cls-1" d="m12.29,17.48c-.29-.16-.63-.25-1.02-.25h-1.24v4.07h1.24c.39,0,.73-.08,1.02-.25.29-.17.51-.4.67-.71.16-.31.24-.67.24-1.08s-.08-.78-.24-1.08c-.16-.3-.38-.54-.67-.7Z"/><path class="cls-1" d="m5.07,17.21h-1.11v2.28h1.11c.42,0,.73-.1.94-.3h0c.21-.19.31-.46.31-.83s-.1-.65-.31-.85c-.21-.2-.52-.3-.94-.3Z"/><path class="cls-1" d="m19.7,12.35H2.67c-1.47,0-2.67,1.2-2.67,2.67v8.29c0,1.47,1.2,2.67,2.67,2.67h17.03c1.47,0,2.67-1.2,2.67-2.67v-8.29c0-1.47-1.2-2.67-2.67-2.67Zm-12.31,7.28c-.21.36-.5.63-.88.82s-.83.29-1.36.29h-1.18v1.81h-1.36v-6.58h2.54c.53,0,.98.1,1.36.29s.67.46.88.82c.21.36.31.79.31,1.28s-.1.91-.31,1.27Zm6.78,1.36c-.27.49-.65.87-1.14,1.15-.49.27-1.05.41-1.69.41h-2.67v-6.58h2.67c.64,0,1.2.14,1.69.41.49.27.87.65,1.14,1.14.27.49.41,1.07.41,1.74s-.14,1.24-.41,1.73Zm5.87-3.79h-3.08v1.73h2.72v1.23h-2.72v2.39h-1.36v-6.58h4.44v1.23Z"/><rect class="cls-1" x="12.64" y="43.57" width="12.32" height="3"/></svg>